<svg xmlns="http://www.w3.org/2000/svg" width="48.748" height="48.748" viewBox="0 0 48.748 48.748">
  <g id="Icon_ionic-ios-arrow-dropright" data-name="Icon ionic-ios-arrow-dropright" transform="translate(-3.375 -3.375)">
    <path id="Path_7" data-name="Path 7" d="M15.082,10.642a2.27,2.27,0,0,1,3.2,0L29.46,21.856a2.259,2.259,0,0,1,.07,3.117L18.515,36.024a2.258,2.258,0,1,1-3.2-3.187l9.363-9.5-9.6-9.5A2.235,2.235,0,0,1,15.082,10.642Z" transform="translate(7.359 4.405)" fill="#fff"/>
    <path id="Path_8" data-name="Path 8" d="M3.375,27.749A24.374,24.374,0,1,0,27.749,3.375,24.37,24.37,0,0,0,3.375,27.749Zm3.75,0a20.616,20.616,0,0,1,35.2-14.578A20.616,20.616,0,1,1,13.171,42.327,20.447,20.447,0,0,1,7.125,27.749Z" transform="translate(0 0)" fill="#fff"/>
  </g>
</svg>
