<svg xmlns="http://www.w3.org/2000/svg" width="31.5" height="31.5" viewBox="0 0 31.5 31.5">
  <path id="Icon_ionic-logo-facebook" data-name="Icon ionic-logo-facebook" d="M34.261,4.5H6.239A1.74,1.74,0,0,0,4.5,6.239V34.261A1.74,1.74,0,0,0,6.239,36H20.25V23.531H16.485V18.938H20.25v-3.4c0-4.069,2.822-6.284,6.456-6.284,1.739,0,3.609.131,4.044.189V13.7h-2.9c-1.977,0-2.354.935-2.354,2.313v2.929h4.709l-.615,4.594H25.5V36h8.761A1.74,1.74,0,0,0,36,34.261V6.239A1.74,1.74,0,0,0,34.261,4.5Z" transform="translate(-4.5 -4.5)" fill="#fff"/>
</svg>
